<svg xmlns="http://www.w3.org/2000/svg" width="47.879" height="44.651" viewBox="0 0 47.879 44.651">
  <g id="Layer_x0020_1" transform="translate(0.016 0.004)">
    <path id="Path_378" data-name="Path 378" d="M0,17.772c.1.86.938,1.494,1.376,1.884l3.277,3.156c1.677,1.549,3.425,3.334,4.977,4.737,1.492,1.349.829,2.878.467,4.962q-.477,2.747-.961,5.474C8.972,38.9,8.819,39.8,8.66,40.7A5.347,5.347,0,0,0,8.5,43.417a2.018,2.018,0,0,0,2.014,1.225,7.663,7.663,0,0,0,2.263-.976c1.4-.738,2.852-1.477,4.279-2.181.733-.362,1.4-.755,2.168-1.122.687-.329,1.441-.72,2.135-1.094a7.669,7.669,0,0,1,2.252-.962,4.156,4.156,0,0,1,2.445.744c1.3.638,10.3,5.352,10.771,5.5a2.113,2.113,0,0,0,2.308-.762c.544-.84.3-1.63.125-2.605-.161-.912-.317-1.8-.477-2.716-.318-1.811-.644-3.619-.953-5.427-.629-3.678-1.177-4.069.9-5.978L44.5,21.544c.612-.711,2.883-2.534,3.21-3.286a1.988,1.988,0,0,0-.626-2.294,5.64,5.64,0,0,0-2.6-.647L35.915,14.1c-1.958-.281-3.7-.122-4.561-1.908-.342-.711-.715-1.406-1.076-2.127C29.539,8.6,28.818,7.21,28.124,5.812c-.714-1.438-1.444-2.844-2.172-4.3a2.993,2.993,0,0,0-.644-.992,2.086,2.086,0,0,0-3.221.568c-1.76,3.463-3.609,7.281-5.411,10.733a3.062,3.062,0,0,1-1.515,1.7c-.645.318-9.779,1.5-11.259,1.716a15.293,15.293,0,0,0-2.766.481A2,2,0,0,0,0,17.772Z" transform="translate(0 0)" fill="#fec407"/>
  </g>
</svg>
