<svg xmlns="http://www.w3.org/2000/svg" width="48.189" height="49.842" viewBox="0 0 48.189 49.842">
  <g id="Layer_x0020_1" transform="translate(606.923 757.842)">
    <g id="_1966784176256" transform="translate(-606.923 -757.842)">
      <path id="Path_368" data-name="Path 368" d="M0,3.306V46.748a3.262,3.262,0,0,0,1.865,2.8,3.51,3.51,0,0,0,1.272.3H35.982A3.249,3.249,0,0,0,38.8,48.087a3.792,3.792,0,0,0,.357-1.932V34.711c-.139.16-.9,1.575-1.032,1.808-.761,1.393-1.665,2.918-2.4,4.294a4.772,4.772,0,0,0-.126,1.781V45.9c0,.189.05.38-.129.38H3.687c-.1,0-.127-.029-.127-.127V3.688c0-.1.03-.127.127-.127H35.474c.212,0,.127.7.127,1.1V23.1a5.025,5.025,0,0,0,.458-.771l2.214-3.974c.1-.165.888-1.543.888-1.613V3.433A3.441,3.441,0,0,0,35.94,0H3.263A3.265,3.265,0,0,0,.987.987,3.721,3.721,0,0,0,0,3.306Z" transform="translate(0 0)" fill="#fec407"/>
      <path id="Path_369" data-name="Path 369" d="M1807.46,1038.992a1.843,1.843,0,0,0,.379-.214l.4-.239,2.745-1.663c.289-.168.512-.715.767-1.14l2.31-4.005c.083-.148.156-.249.238-.4l2.093-3.629c.152-.272.29-.512.45-.779l.932-1.611c.161-.288.306-.519.466-.805l2.309-4.005c.781-1.3,1.552-2.73,2.331-4.026.165-.275.3-.531.467-.8a3.2,3.2,0,0,0,.432-.84c-1.16-.614-2.459-1.452-3.56-2.034l-.9,1.517c-.309.516-.582,1.011-.89,1.526s-.588,1.015-.884,1.532c-.144.252-.3.514-.456.773s-.288.5-.449.78l-5.383,9.239c-.311.525-.579,1-.89,1.526l-2.9,5.024,0,4.276Z" transform="translate(-1777.962 -996.271)" fill="#fec407"/>
      <path id="Path_370" data-name="Path 370" d="M405.12,1654.183h25.938v-2.543H405.12Z" transform="translate(-398.508 -1624.685)" fill="#fec407"/>
      <path id="Path_371" data-name="Path 371" d="M405.12,937.433h25.938V934.89H405.12Z" transform="translate(-398.508 -919.632)" fill="#fec407"/>
      <path id="Path_372" data-name="Path 372" d="M405.12,563.473h19.835V560.93H405.12Z" transform="translate(-398.508 -551.776)" fill="#fec407"/>
      <path id="Path_373" data-name="Path 373" d="M405.12,1280.223h19.835v-2.543H405.12Z" transform="translate(-398.508 -1256.828)" fill="#fec407"/>
      <path id="Path_374" data-name="Path 374" d="M405.12,1996.973h19.835v-2.543H405.12Z" transform="translate(-398.508 -1961.881)" fill="#fec407"/>
      <path id="Path_375" data-name="Path 375" d="M877.884,2368.153a2.5,2.5,0,0,0,1.6-.561c.218-.179.138-.069.325-.311a2.474,2.474,0,0,0,.617-1.629,2.52,2.52,0,0,0-2.246-2.458,2.491,2.491,0,0,0-1.424.271,2.521,2.521,0,0,0-1.139,1.277,2.942,2.942,0,0,0-.183,1.024,2.553,2.553,0,0,0,.715,1.619l.042.042a2.3,2.3,0,0,0,.7.485A2.706,2.706,0,0,0,877.884,2368.153Z" transform="translate(-861.143 -2324.627)" fill="#fec407"/>
      <path id="Path_376" data-name="Path 376" d="M397.311,2362.608a2.229,2.229,0,0,0,.239,1.287,2.269,2.269,0,0,0,.778.918,2.444,2.444,0,0,0,.366.227,2.5,2.5,0,0,0,3.576-2.219,2.466,2.466,0,0,0-.688-1.728,2.229,2.229,0,0,0-.7-.524,2.522,2.522,0,0,0-2.154-.023l-.683.462a2.828,2.828,0,0,0-.251.3A2.337,2.337,0,0,0,397.311,2362.608Z" transform="translate(-390.827 -2321.795)" fill="#fec407"/>
      <path id="Path_377" data-name="Path 377" d="M2648.86,786.738l2.672,1.524c.289.167.619.33.888.511.172-.257,1.361-2.3,1.4-2.458l-3.6-2.034c-.132.25-1.338,2.245-1.356,2.458Z" transform="translate(-2605.63 -771.48)" fill="#fec407"/>
    </g>
  </g>
</svg>
