<svg xmlns="http://www.w3.org/2000/svg" width="48.403" height="48.247" viewBox="0 0 48.403 48.247">
  <g id="Group_68" data-name="Group 68" transform="translate(-478.764 -619.69)">
    <g id="Group_67" data-name="Group 67" transform="translate(478.764 619.69)">
      <path id="Path_353" data-name="Path 353" d="M478.779,632.414c.965-.524,1.7-.931,2.449-1.327q10.577-5.641,21.164-11.261a1.315,1.315,0,0,1,1.055-.046q11.53,6.106,23.027,12.269c.149.08.29.175.6.364Z" transform="translate(-478.767 -619.69)" fill="#fec407"/>
      <path id="Path_354" data-name="Path 354" d="M527.167,678.126V681.2h-48.4v-3.078Z" transform="translate(-478.764 -632.957)" fill="#fec407"/>
      <path id="Path_355" data-name="Path 355" d="M499.626,666.607V645.624h4.782v20.983Z" transform="translate(-483.5 -625.578)" fill="#fec407"/>
      <path id="Path_356" data-name="Path 356" d="M490.833,666.6H486.09V645.639h4.743Z" transform="translate(-480.427 -625.581)" fill="#fec407"/>
      <path id="Path_357" data-name="Path 357" d="M519.07,666.6h-4.746V645.639h4.746Z" transform="translate(-486.837 -625.581)" fill="#fec407"/>
      <path id="Path_358" data-name="Path 358" d="M532.632,666.6h-4.723v-20.96h4.723Z" transform="translate(-489.922 -625.581)" fill="#fec407"/>
      <path id="Path_359" data-name="Path 359" d="M527.122,639.843H478.766v-1.5h48.356Z" transform="translate(-478.765 -623.925)" fill="#fec407"/>
      <path id="Path_360" data-name="Path 360" d="M491.958,675.439H484v-1.548h7.958Z" transform="translate(-479.953 -631.996)" fill="#fec407"/>
      <path id="Path_361" data-name="Path 361" d="M483.974,644.06v-1.519h8.008v1.519Z" transform="translate(-479.947 -624.878)" fill="#fec407"/>
      <path id="Path_362" data-name="Path 362" d="M497.585,644.057v-1.541h7.957v1.541Z" transform="translate(-483.037 -624.872)" fill="#fec407"/>
      <path id="Path_363" data-name="Path 363" d="M520.2,644.072h-7.951v-1.547H520.2Z" transform="translate(-486.366 -624.874)" fill="#fec407"/>
      <path id="Path_364" data-name="Path 364" d="M533.785,642.5v1.562h-7.933V642.5Z" transform="translate(-489.455 -624.87)" fill="#fec407"/>
      <path id="Path_365" data-name="Path 365" d="M497.594,673.866h7.943v1.55h-7.943Z" transform="translate(-483.039 -631.99)" fill="#fec407"/>
      <path id="Path_366" data-name="Path 366" d="M520.215,673.881v1.547h-7.934v-1.547Z" transform="translate(-486.374 -631.993)" fill="#fec407"/>
      <path id="Path_367" data-name="Path 367" d="M533.771,675.447h-7.929v-1.542h7.929Z" transform="translate(-489.452 -631.999)" fill="#fec407"/>
    </g>
  </g>
</svg>
