<svg xmlns="http://www.w3.org/2000/svg" width="60.344" height="49.381" viewBox="0 0 60.344 49.381">
  <g id="Layer_1" data-name="Layer 1" transform="translate(-482.323 -292.824)">
    <g id="Group_63" data-name="Group 63" transform="translate(482.323 292.824)">
      <g id="Group_62" data-name="Group 62" transform="translate(0 0)">
        <path id="Path_321" data-name="Path 321" d="M525.1,446.067c0-1.576-.005-3.152,0-4.729a2.708,2.708,0,0,1,2.19-2.868c2.372-.668,4.744-1.336,7.122-1.984a6.9,6.9,0,0,1,5.124.5c1.518.777,3.048,1.531,4.556,2.326a7.375,7.375,0,0,0,3.783.885c3.15-.114,6.3-.2,9.453-.3,1.49-.044,2.279.511,2.407,1.671a2.354,2.354,0,0,1-2.017,2.514c-1.682.273-3.382.44-5.076.64-2.815.332-5.632.644-8.445.987a1.392,1.392,0,1,0,.34,2.737l15.662-1.642a4.534,4.534,0,0,0,2.917-1.55q5.179-5.569,10.4-11.1a3.368,3.368,0,0,1,1.187-.863,1.856,1.856,0,0,1,2.093.5,1.949,1.949,0,0,1,.48,2.106,4.993,4.993,0,0,1-.552,1.034c-3.037,4.6-6.093,9.191-9.117,13.8a9.1,9.1,0,0,1-4.512,3.639c-2.673,1.01-5.34,2.041-7.987,3.118a14.045,14.045,0,0,1-8.722.355c-6.312-1.448-12.655-2.759-18.983-4.132a2.674,2.674,0,0,1-2.3-2.843C525.093,449.271,525.1,447.669,525.1,446.067Z" transform="translate(-517.06 -408.988)" fill="#fec407"/>
        <path id="Path_322" data-name="Path 322" d="M611.445,386.7a7.978,7.978,0,1,1,7.954-8.037A7.928,7.928,0,0,1,611.445,386.7Zm-.4-5.344-.268.112a10.838,10.838,0,0,1-.754-1.235c-.211-.47-.561-.724-.973-.481a1.136,1.136,0,0,0-.424.94,2.237,2.237,0,0,0,1.75,1.821c.475.137.718.287.7.825-.007.214.244.436.377.655a2.491,2.491,0,0,0,.372-.673c.065-.329-.011-.621.471-.755a2.346,2.346,0,0,0,1.993-2.3c.034-1.137-.537-1.811-1.932-2.333-.19-.071-.467-.247-.481-.4-.055-.6-.023-1.212-.023-1.819a1.241,1.241,0,0,1,.7.6c.213.522.488.952,1.1.626.642-.344.472-.959.106-1.339a15.667,15.667,0,0,0-1.818-1.425l-.492-.751-.62,1.006c-1.215.349-1.8.818-2,1.667a2.185,2.185,0,0,0,1.546,2.711c.251.1.61.328.635.531A16.545,16.545,0,0,1,611.041,381.353Z" transform="translate(-578.908 -359.72)" fill="#fec407"/>
        <path id="Path_323" data-name="Path 323" d="M486.945,453.53q0-4.294,0-8.588c0-1.075.11-1.194,1.151-1.2,1.445-.006,2.89.018,4.334-.009.728-.014,1.051.257,1.049,1.01q-.02,8.785,0,17.571c0,.736-.306,1.032-1.049,1.014-1.444-.034-2.889-.008-4.334-.01-1.022,0-1.148-.124-1.149-1.121Q486.943,457.864,486.945,453.53Z" transform="translate(-486.945 -417.336)" fill="#fec407"/>
        <path id="Path_324" data-name="Path 324" d="M665.084,323.642a5.106,5.106,0,0,1-5.214,5.147,5.174,5.174,0,0,1-5.16-5.156,5.228,5.228,0,0,1,5.207-5.213A5.163,5.163,0,0,1,665.084,323.642Zm-5.325,3.279c.544-.419,1-.764,1.453-1.121a1.5,1.5,0,0,0-.274-2.543c-.842-.422-.921-.627-.552-1.571.129.21.2.434.35.541a2.425,2.425,0,0,0,.653.232c.054-.231.194-.485.141-.688a1.338,1.338,0,0,0-.46-.614c-.383-.315-.8-.583-1.176-.848a3.257,3.257,0,0,1-.732.6,1.461,1.461,0,0,0-.988,1.38,1.32,1.32,0,0,0,.916,1.332c.19.074.375.16.538.23v1.413c-.283-.127-.389-.354-.561-.506a5.636,5.636,0,0,0-.739-.48c-.045.327-.247.777-.105.957a10.084,10.084,0,0,0,1.447,1.259Z" transform="translate(-619.369 -318.421)" fill="#fec407"/>
        <path id="Path_325" data-name="Path 325" d="M698.335,437.7c-.294-.823-.59-1.576-.82-2.348a.851.851,0,0,1,.145-.686c2.115-2.441,4.235-4.879,6.393-7.282a3.8,3.8,0,0,1,2.839-1.344,3.437,3.437,0,0,1,1.045.349,3.361,3.361,0,0,1-.407.958c-2.443,2.783-4.909,5.545-7.371,8.312C699.566,436.327,698.97,436.99,698.335,437.7Z" transform="translate(-653.14 -403.37)" fill="#fec407"/>
        <path id="Path_326" data-name="Path 326" d="M679.224,434.162l-2.547-1.042a1.605,1.605,0,0,1,.23-.315q2.714-2.52,5.438-5.029a3.227,3.227,0,0,1,2.759-.857,1.524,1.524,0,0,1,.825.5c.06.067-.187.5-.374.68C683.458,430.127,681.346,432.136,679.224,434.162Z" transform="translate(-636.709 -404.032)" fill="#fec407"/>
        <path id="Path_329" data-name="Path 329" d="M643.517,413.711V411.62c.607.1,1,.4.993,1.02A1.035,1.035,0,0,1,643.517,413.711Z" transform="translate(-610.534 -391.987)" fill="#fec407"/>
        <path id="Path_330" data-name="Path 330" d="M636.367,393.854v1.693l-.2.132c-.213-.3-.591-.593-.6-.894-.006-.349.317-.7.5-1.056Z" transform="translate(-604.264 -377.865)" fill="#fec407"/>
        <path id="Path_331" data-name="Path 331" d="M680.9,346.3v-1.158l.189-.1c.136.222.376.443.379.667s-.219.479-.343.719Z" transform="translate(-640.042 -339.43)" fill="#fec407"/>
        <path id="Path_332" data-name="Path 332" d="M676.073,334.962c-.709-.513-.706-.707,0-1.12Z" transform="translate(-635.814 -330.594)" fill="#fec407"/>
      </g>
    </g>
  </g>
</svg>
