<svg xmlns="http://www.w3.org/2000/svg" width="57.095" height="57.326" viewBox="0 0 57.095 57.326">
  <g id="Group_64" data-name="Group 64" transform="translate(-935.999 -2207.902)">
    <path id="Path_334" data-name="Path 334" d="M828.887,488.466a3.91,3.91,0,0,1-2.989-3.1,5.5,5.5,0,0,1,.133-2.081c.957-4.01,1.962-8.009,2.948-12.013.057-.231.085-.47.146-.816-.383,0-.7,0-1.018,0-3.4-.026-6.805,0-10.2-.1a5.737,5.737,0,0,1-5.842-5.292,34.083,34.083,0,0,1,1.817-17.225c1.054-2.776,2.9-4.7,5.985-5.129a4.175,4.175,0,0,1,3.554,1.055,44.941,44.941,0,0,0,12.056,8.116c.044.019.075.067.193.175a15.793,15.793,0,0,1-5.918-.316,10.58,10.58,0,0,1-7.049-4.976,3.057,3.057,0,0,0-4.2-1.09,3.1,3.1,0,0,0-1.249,4.161,14.955,14.955,0,0,0,5.591,5.8.965.965,0,0,1,.537,1.153c-.269,1.957-.444,3.927-.669,6.031h1.039q4.941,0,9.881,0c3.133,0,4.8,2.128,4.055,5.173-1.408,5.743-2.843,11.48-4.234,17.228a4.264,4.264,0,0,1-3.086,3.243Z" transform="translate(132.23 1776.763)" fill="#fec407"/>
    <path id="Path_335" data-name="Path 335" d="M766.94,507.795h-3.42a113.258,113.258,0,0,0-.241-40.818c1.045-.2,2-.382,2.96-.557a3.141,3.141,0,0,1,.549.048c.5,4.312,1.156,8.634,1.48,12.98s.324,8.73.469,13.2h15.452c0,1.036.034,1.98-.025,2.919-.014.22-.344.42-.684.8V507.79h-3.35v-4.168c-.295-.026-.526-.063-.758-.063-3.675,0-7.35.012-11.025-.019-.647-.006-.826.221-.889.824C767.339,505.493,767.124,506.613,766.94,507.795Zm13.1-6.146v-5.594H768.372c-.177,1.879-.35,3.706-.528,5.594Z" transform="translate(172.72 1756.891)" fill="#fec407"/>
    <path id="Path_336" data-name="Path 336" d="M893.654,379.005a6.877,6.877,0,1,1-6.834-6.857A6.885,6.885,0,0,1,893.654,379.005Z" transform="translate(75.155 1835.755)" fill="#fec407"/>
    <path id="Path_337" data-name="Path 337" d="M922.2,576.379h-2.591V550.554H891.08v-1.979h36.213V550.5h-5.1Z" transform="translate(65.801 1688.155)" fill="#fec407"/>
    <path id="Path_338" data-name="Path 338" d="M864.564,474.749c-5.623-.093-10.083-1.258-13.666-4.677a19.066,19.066,0,0,1-2.843-3.639,2.328,2.328,0,0,1,.958-3.23,2.422,2.422,0,0,1,3.279.885c1.846,3.186,4.755,4.736,8.234,5.427a21.071,21.071,0,0,0,7.634-.078,2.467,2.467,0,0,1,3,1.934,2.408,2.408,0,0,1-2.194,2.873C867.245,474.477,865.512,474.643,864.564,474.749Z" transform="translate(102.068 1759.838)" fill="#fec407"/>
    <path id="Path_340" data-name="Path 340" d="M934.919,516.208c-.208-.662.25-.582.617-.582q3.755,0,7.509,0h.884l.01-.11-2.007-.423c2.4-.771,3.109-1.928,2.755-4.279a2.167,2.167,0,0,1,2.446,1.472c.488,1.277-.076,2.439-1.795,3.339h3.093c.9,0,1.8-.021,2.693.016.21.009.412.214.618.329l-.112.239Z" transform="translate(29.169 1719.787)" fill="#fec407"/>
    <path id="Path_341" data-name="Path 341" d="M959.622,484.787c-.565.341-.906.246-1.2-.257-.367-.623-.8-1.206-1.229-1.84l.673-.489Z" transform="translate(10.494 1743.684)" fill="#fec407"/>
    <path id="Path_342" data-name="Path 342" d="M803.409,653.409H791.217l.528-5.594h11.664Z" transform="translate(149.347 1605.131)" fill="#fec407"/>
  </g>
</svg>
