<svg xmlns="http://www.w3.org/2000/svg" width="57.095" height="57.076" viewBox="0 0 57.095 57.076">
  <g id="Group_66" data-name="Group 66" transform="translate(-1239.419 -465.338)">
    <g id="Group_65" data-name="Group 65" transform="translate(1239.419 465.338)">
      <path id="Path_344" data-name="Path 344" d="M1344.977,167.77a28.538,28.538,0,1,1-28.557,28.785A28.6,28.6,0,0,1,1344.977,167.77Zm-.012,3.576a24.945,24.945,0,1,0,24.792,22.437A24.987,24.987,0,0,0,1344.965,171.346Z" transform="translate(-1316.419 -167.77)" fill="#fec407"/>
      <path id="Path_346" data-name="Path 346" d="M1427.437,307.523v-8.211c1.062-.11,2.109-.163,3.135-.337,2.513-.424,5.019-.894,7.524-1.365a7.512,7.512,0,0,1,5.627,1c1.412.906,2.737,1.947,4.1,2.931a1.7,1.7,0,0,1,.207.232,8.631,8.631,0,0,0-3.678,1.753.543.543,0,0,1-.477.061,7.722,7.722,0,0,1-1.439-.832,2.478,2.478,0,0,0-1.735-.636,16.706,16.706,0,0,0-1.939.183,1.461,1.461,0,0,0-1.129,1.424,1.208,1.208,0,0,0,.782,1.345,7.675,7.675,0,0,0,2.847.586,15.429,15.429,0,0,1,2.879.471,6.393,6.393,0,0,1,1.955,1.111,1.593,1.593,0,0,1,.495,1.914,1.429,1.429,0,0,1-1.554.941,73.867,73.867,0,0,0-7.414.368,27.021,27.021,0,0,1-4.689-.41,3.35,3.35,0,0,1-1.223-.559C1430.357,308.674,1429.114,307.627,1427.437,307.523Z" transform="translate(-1411.332 -278.64)" fill="#fec407"/>
      <path id="Path_347" data-name="Path 347" d="M1536,336.227l-2.42-1.284c.705-1.631,4.438-2.874,6.834-2.22a7.135,7.135,0,1,1-8.551,8.443c.448,0,.89.018,1.33,0a11.1,11.1,0,0,0,2.037-.166c.8-.192.855-.321,1.625-1.288.394.149.8.284,1.194.461.124.056.205.217.292.34.026.036.005.106.005.16v2.171a5.344,5.344,0,0,1-.687-.589,2.532,2.532,0,0,1-.314-.626c-.3-.716-.65-.941-1.206-.754-.446.15-.647.711-.452,1.352a2.723,2.723,0,0,0,1.716,1.762,8.465,8.465,0,0,0,.874.246,2.494,2.494,0,0,0,.086.714c.075.179.291.3.444.447.131-.161.384-.332.372-.482-.045-.546.177-.718.694-.846a2.613,2.613,0,0,0,1.61-4.122,2.692,2.692,0,0,0-1.691-.991c-.443-.113-.64-.312-.6-.79.043-.5.01-1,.01-1.5l.183-.1a5.424,5.424,0,0,1,.627.831c.295.593.637.822,1.129.652s.674-.624.444-1.26a2.351,2.351,0,0,0-1.858-1.561c-.41-.081-.565-.236-.528-.638.028-.307-.012-.63-.411-.623s-.511.343-.462.663c.07.453-.17.488-.516.623A15.78,15.78,0,0,0,1536,336.227Z" transform="translate(-1500.609 -308.642)" fill="#fec407"/>
      <path id="Path_348" data-name="Path 348" d="M1400.721,308.2q0,2.223,0,4.446c0,.7-.2.9-.9.9-.615,0-1.229.007-1.844,0s-.83-.194-.831-.8q-.008-4.527,0-9.055c0-.589.188-.771.783-.779q1-.014,2.006,0c.59.008.78.2.783.784C1400.725,305.2,1400.721,306.7,1400.721,308.2Z" transform="translate(-1385.433 -283.302)" fill="#fec407"/>
      <path id="Path_349" data-name="Path 349" d="M1582.833,387.774c.8.277,1.059.555,1.061,1.105,0,.679-.443.962-1.061,1.183Z" transform="translate(-1544.186 -355.859)" fill="#fec407"/>
      <path id="Path_350" data-name="Path 350" d="M1571.5,359.8V361.7c-.615-.076-.773-.514-.817-.977C1570.637,360.228,1571.037,360.049,1571.5,359.8Z" transform="translate(-1533.796 -331.939)" fill="#fec407"/>
    </g>
  </g>
</svg>
