<svg xmlns="http://www.w3.org/2000/svg" width="1928.476" height="345.373" viewBox="0 0 1928.476 345.373">
  <path id="Path_304" data-name="Path 304" d="M-22.05,109.638l3.833-168.087H1894.044l3.831,246.866a156.01,156.01,0,0,1-17.883,1.02,150.789,150.789,0,0,1-37.145-4.52c-20.9,21.049-59.374,35.172-103.393,35.172-66.321,0-120.075-32.022-120.075-71.533,0-1.217.052-2.421.153-3.622a152.722,152.722,0,0,1-33.364,3.622c-37.709,0-70.231-13.181-85.357-32.221-12.773,10.989-34.08,18.2-58.249,18.2-25.523,0-47.877-8.051-60.344-20.106-17.7,12.3-43.967,20.106-73.3,20.106-22.2,0-42.616-4.475-58.941-11.962-16.426,27.836-60.93,47.789-113.278,47.789-56.284,0-103.521-23.073-116.5-54.228-21.281,11.43-49.46,18.4-80.372,18.4a198.213,198.213,0,0,1-31.911-2.572c-21.537,19.238-58.249,31.916-99.969,31.916-53.854,0-99.432-21.124-114.659-50.226a188.22,188.22,0,0,1-55.26,8.037c-39.905,0-75.239-11.613-97.081-29.466-16.81,16.924-47.749,28.293-83.159,28.293-28.819,0-54.674-7.533-72.353-19.465-13.922,6.575-31.5,10.515-50.634,10.515-22.842,0-43.482-5.6-58.276-14.625-20.284,22.387-60.012,37.593-105.717,37.593-42.256,0-79.4-13.014-100.786-32.677a185.408,185.408,0,0,1-60.4,9.71A258.573,258.573,0,0,1-22.05,109.638Z" transform="matrix(0.999, -0.035, 0.035, 0.999, 24.076, 124.648)" fill="#fff" opacity="0.79"/>
</svg>
