<?xml version="1.0" encoding="utf-8"?>
<!-- Generator: Adobe Illustrator 24.3.0, SVG Export Plug-In . SVG Version: 6.00 Build 0)  -->
<svg version="1.1" id="ae7ad495-543d-4c4b-9483-8059c5566fe6"
	 xmlns="http://www.w3.org/2000/svg" xmlns:xlink="http://www.w3.org/1999/xlink" x="0px" y="0px" viewBox="0 0 1009.5 839.6"
	 style="enable-background:new 0 0 1009.5 839.6;" xml:space="preserve">
<style type="text/css">
	.st0{opacity:0.1;fill:#FFD23B;enable-background:new    ;}
	.st1{opacity:0.1;fill:#38D39F;enable-background:new    ;}
	.st2{fill:#FFD139;}
	.st3{fill:#FEC407;}
	.st4{fill:#38D39F;}
	.st5{fill:#444053;}
	.st6{fill:#3A3768;}
	.st7{fill:#0F383B;}
	.st8{fill:#E6E8EC;}
	.st9{opacity:0.1;enable-background:new    ;}
	.st10{display:none;fill:url(#SVGID_1_);}
	.st11{display:none;fill:#8E6F7F;}
	.st12{display:none;fill:#5F5570;}
	.st13{display:none;opacity:0.1;enable-background:new    ;}
	.st14{display:none;fill:#EAEAF2;}
	.st15{display:none;fill:#BC8487;}
	.st16{display:none;fill:#FFC4D0;}
	.st17{display:none;opacity:0.1;}
	.st18{display:inline;}
	.st19{fill:#FFD037;}
	.st20{fill:#FFD23A;}
	.st21{opacity:0.1;fill:#FEC407;enable-background:new    ;}
	.st22{fill:#A8A8A8;}
	.st23{opacity:0.2;enable-background:new    ;}
	.st24{fill:#F8A39F;}
	.st25{fill:#E2A805;}
	.st26{fill:#49ABB5;}
	.st27{fill:#24555E;}
	.st28{fill:#1C3A3E;}
	.st29{fill:#FABBB4;}
	.st30{fill:#EDB324;}
	.st31{fill:#501506;}
	.st32{fill:#89BECA;}
</style>
<path class="st0" d="M586.6,111.4c-64.7-2.2-126.4-23.1-185.2-46S284.2,17.2,221,5.1C180.4-2.7,133.9-3.8,101.2,18
	C69.7,39,59.5,75.1,54,108.7c-4.1,25.3-6.5,51.9,4.7,75.5c7.8,16.4,21.7,30.2,31.4,46c33.5,54.7,9.8,122.2-26.4,175.6
	c-17,25.1-36.8,49-49.9,75.7S-5.4,538.7,6.1,566c11.4,27,38.5,47.2,67.9,61.5c59.7,29,130,37.2,198.6,41.9
	c151.8,10.4,304.5,5.9,456.7,1.4c56.3-1.7,112.9-3.4,168.3-12.1c30.8-4.8,62.6-12.5,84.9-31c28.4-23.5,35.4-63.4,16.4-92.9
	c-31.9-49.5-120-61.8-142.3-114.9c-12.3-29.2,0.3-61.8,18.2-88.9c38.2-58.2,102.3-109.2,105.7-175.7c2.3-45.7-28.5-91.4-76.1-113
	c-49.9-22.6-119.2-19.8-156,17.7C710.4,98.5,643.7,113.4,586.6,111.4z"/>
<ellipse class="st1" cx="483.5" cy="781" rx="304" ry="41.1"/>
<path class="st2" d="M333,658.6c0,0,21-3.4,33.6,11.5c0,0-9.2,7.3-29.1-2.8L333,658.6z"/>
<path class="st3" d="M330.8,658.2c0,0-13.4,16.6-6.8,34.9c0,0,10.9-4.4,12.1-26.6L330.8,658.2z"/>
<path class="st3" d="M318.8,631.1c0,0,8.4-15.4,42,6.2c0,0-4.5,10.4-19.3,9.5S322.6,639.2,318.8,631.1z"/>
<path class="st3" d="M316.6,630c0,0-17.4-2-19.1,37.9c0,0,11,2.3,18.9-10.3S320.9,637.9,316.6,630z"/>
<path class="st3" d="M306.4,598.2c0,0,9.8-27.2,45.4-7.8c0,0-8.1,24.9-41.7,17.1L306.4,598.2z"/>
<path class="st3" d="M295.5,557.6c0,0,18.5-27.4,51.2-2c0,0-11.5,25.8-48.5,11.8L295.5,557.6z"/>
<path class="st3" d="M291.6,519c0,0,21.6-25.2,54,0c0,0-20.5,22.1-54,6.4V519z"/>
<path class="st3" d="M288.2,481.4c0,0,21.8-26.3,52.9-1.4c0,0-24.6,23.2-52.9,7.6V481.4z"/>
<path class="st3" d="M290.2,448.1c0,0,23-33.9,52.1-10.9c0,0-24.6,29.1-52.1,17.4V448.1z"/>
<path class="st3" d="M295.5,409.2c0,0,24.4-33.6,52.6-7.8c0,0-28.9,29.1-52.6,14V409.2z"/>
<path class="st3" d="M303.6,374.4c0,0,28.8-31.6,54-19c0,0-30.1,33.5-55.3,27.4L303.6,374.4z"/>
<path class="st3" d="M313.7,341.4c0,0,33.3-38.6,52.6-25.8c0,0-24.5,30-55,33L313.7,341.4z"/>
<path class="st3" d="M328.2,303.2c0,0,29.1-31.6,50.4-23.7c0,0-24.9,32.8-54.3,33.6L328.2,303.2z"/>
<path class="st3" d="M341.4,267.4c0,0,32.2-30.2,46.2-24.9c0,0-23.2,33.6-47.6,31.6L341.4,267.4z"/>
<path class="st4" d="M354.3,234.3c0,0,27.7-36.1,42.8-33.3c0,0-16.8,32.2-42.8,37V234.3z"/>
<path class="st4" d="M368.3,189.8c0,0,24.5-27.7,37.7-27.6c0,0-19.3,37-38.7,36.7L368.3,189.8z"/>
<path class="st2" d="M376.5,160.1l23.7-57.7c0,0,1.2,52.1-26.7,68.4L376.5,160.1z"/>
<path class="st3" d="M386.1,96.5c0,0,3.9-48.2,1.4-52.1c0,0,16.9,40-1.6,73.4L386.1,96.5z"/>
<path class="st3" d="M305.5,597.5c0,0-24.5-15.2-40.4,22c0,0,21.8,14.5,43.3-12.5L305.5,597.5z"/>
<path class="st3" d="M294.7,556c0,0-30.1-13.7-44.7,25.1c0,0,23.3,16,47.5-15.3L294.7,556z"/>
<path class="st3" d="M290.2,521.3c0,0-21.6-25.2-54,0c0,0,20.4,22.1,54,6.4V521.3z"/>
<path class="st3" d="M287.5,481.4c0,0-21.9-26.3-52.9-1.4c0,0,24.6,23.2,52.9,7.6V481.4z"/>
<path class="st3" d="M290.2,449.1c0,0-15.3-38-48.6-21.6c0,0,18,33.7,47.3,27.9L290.2,449.1z"/>
<path class="st3" d="M297.4,409c0,0-15.2-38.6-49-20.7c0,0,20.7,35.4,47.5,26.7L297.4,409z"/>
<path class="st3" d="M306.8,374.6c0,0-6-42.3-34-46.1c0,0,5.9,44.6,30.2,53.8L306.8,374.6z"/>
<path class="st3" d="M314.4,341.5c0,0-2.4-51-25.5-52.8c0,0,0.8,38.7,22.9,60L314.4,341.5z"/>
<path class="st3" d="M330.6,301.7c0,0-6.9-42.4-29-47.6c0,0,2.7,41.1,26.8,58L330.6,301.7z"/>
<path class="st3" d="M344,267.7c0,0-0.2-44.2-13.7-50.7c0,0-8.4,40,9.8,56.3L344,267.7z"/>
<path class="st3" d="M355.3,233.8c0,0-1.9-45.5-15.9-51.9c0,0-4.8,36,13.8,54.9L355.3,233.8z"/>
<path class="st3" d="M370.2,193.4c0,0-0.1-37-10.1-45.7c0,0-9.9,40.5,4.9,53.1L370.2,193.4z"/>
<path class="st3" d="M375.4,158.3l-9.7-61.6c0,0-13.2,50.5,10.2,72.7L375.4,158.3z"/>
<path class="st3" d="M377.3,97.1c0,0-24.9-41.4-24.4-46c0,0,2.6,43.4,34,65L377.3,97.1z"/>
<path class="st3" d="M380.2,84.9c0,0-23.5-58.8-34.2-63.6c0,0,33.6,17.1,36.1,61.9L380.2,84.9z"/>
<path class="st5" d="M367.1,199.2l-1.6-0.5c19.9-64.7,24.8-106,14-116.3l1.2-1.2C392.1,92,387.5,132.8,367.1,199.2z"/>
<path class="st5" d="M312.5,350.7l-2.4-0.8c2.1-5.9,4.4-12,6.8-17.9c20.7-51.6,38.4-99.7,49.7-136.6l2.1-1
	c-11.3,37-28.6,86.8-49.4,138.5C316.8,338.8,314.6,344.8,312.5,350.7z"/>
<path class="st5" d="M362.6,707c-0.3-0.4-32.5-36.6-54.9-98.4c-13.1-36.2-20.5-74.3-21.7-112.8c-1.5-48.1,8.6-101.9,25.9-150.7
	l1.9,2.2c-38.8,109.6-23.4,203.5-2.9,260c22.2,61.3,54,97.1,54.3,97.5L362.6,707z"/>
<path class="st6" d="M645.1,289.8h4.3c1.3,0,2.3,1,2.3,2.3v68.4c0,1.3-1,2.3-2.3,2.3h-4.3c-1.3,0-2.3-1-2.3-2.3v-68.4
	C642.8,290.8,643.8,289.8,645.1,289.8z"/>
<path class="st6" d="M350.7,232.6h0.4c1.3,0,2.3,1,2.3,2.3v19.5c0,1.3-1,2.3-2.3,2.3h-0.4c-1.3,0-2.3-1-2.3-2.3v-19.5
	C348.4,233.6,349.4,232.6,350.7,232.6z"/>
<path class="st6" d="M350.5,276.6h1c1.3,0,2.3,1,2.3,2.3v37.3c0,1.3-1,2.3-2.3,2.3h-1c-1.3,0-2.3-1-2.3-2.3v-37.3
	C348.2,277.7,349.2,276.6,350.5,276.6z"/>
<path class="st6" d="M350.6,333.1h0.7c1.3,0,2.3,1,2.3,2.3V373c0,1.3-1,2.3-2.3,2.3h-0.7c-1.3,0-2.3-1-2.3-2.3v-37.6
	C348.3,334.1,349.3,333.1,350.6,333.1z"/>
<path class="st6" d="M390.2,153.2h218.4c21.5,0,39,17.5,39,39v524.4c0,21.5-17.5,39-39,39H390.2c-21.5,0-39-17.5-39-39V192.2
	C351.2,170.6,368.6,153.2,390.2,153.2z"/>
<path class="st7" d="M605.8,168.8h-34v4.1c0,10.7-8.7,19.4-19.4,19.4l0,0H444.2c-10.7,0-19.4-8.7-19.4-19.4l0,0v-4.1H393
	c-13,0-23.5,10.5-23.5,23.5l0,0v524c0,13,10.5,23.5,23.5,23.5h212.7c13,0,23.5-10.5,23.5-23.5V192.4
	C629.3,179.4,618.8,168.8,605.8,168.8L605.8,168.8z"/>
<path class="st8" d="M474.7,171.2h33.6c2.1,0,3.9,1.7,3.9,3.9v0.7c0,2.1-1.7,3.9-3.9,3.9h-33.6c-2.1,0-3.9-1.7-3.9-3.9V175
	C470.8,172.9,472.5,171.2,474.7,171.2z"/>
<circle class="st8" cx="523.2" cy="175.4" r="4.8"/>
<path class="st3" d="M750.2,126.7c0,0-84.2-5.1-74.3,53.9c0,0-2,10.4,7.5,15.2c0,0,0.2-4.4,8.6-2.9c3,0.5,6.1,0.6,9.2,0.4
	c4.1-0.3,8-1.9,11.2-4.6l0,0c0,0,23.7-9.8,32.9-48.5c0,0,6.8-8.4,6.5-10.6l-14.2,6.1c0,0,4.9,10.2,1,18.8c0,0-0.5-18.4-3.2-18
	c-0.5,0.1-7.4,3.6-7.4,3.6s8.3,17.9,2,30.8c0,0,2.4-22-4.7-29.5l-10,5.8c0,0,9.8,18.4,3.1,33.5c0,0,1.7-23.1-5.2-32.1l-9.1,7.1
	c0,0,9.2,18.2,3.6,30.6c0,0-0.7-26.9-5.5-28.9c0,0-7.9,7-9.1,9.9c0,0,6.3,13.2,2.4,20.2c0,0-2.4-17.9-4.3-18c0,0-7.9,11.9-8.7,20
	c0,0,0.3-12.1,6.8-21.1c0,0-7.6,1.3-12.1,6.3c0,0,1.2-8.4,14-9.1c0,0,6.5-9,8.3-9.5c0,0-12.7-1.1-20.5,2.4c0,0,6.8-7.9,22.8-4.3
	l9-7.3c0,0-16.8-2.3-23.9,0.2c0,0,8.2-7,26.3-1.9l9.7-5.8c0,0-14.3-3.1-22.8-2c0,0,9-4.9,25.7,0.4l7-3.1c0,0-10.5-2.1-13.5-2.4
	c-3.1-0.3-3.2-1.2-3.2-1.2c6.6-1.1,13.5-0.3,19.7,2.2C735.7,133.2,750.5,127.7,750.2,126.7z"/>
<path class="st3" d="M663.8,100.5c0,0-38-2.3-33.6,24.4c0,0-0.9,4.7,3.4,6.9c0,0,0.1-2,3.9-1.3c1.4,0.2,2.8,0.3,4.1,0.2
	c1.9-0.1,3.6-0.9,5-2.1l0,0c0,0,10.7-4.4,14.9-21.9c0,0,3.1-3.8,3-4.8l-6.4,2.7c0,0,2.2,4.6,0.5,8.5c0,0-0.2-8.3-1.4-8.1
	c-0.2,0-3.3,1.6-3.3,1.6s3.8,8.1,0.9,13.9c0,0,1.1-9.9-2.1-13.4l-4.5,2.7c0,0,4.4,8.3,1.4,15.1c0,0,0.8-10.4-2.4-14.5l-4.1,3.2
	c0,0,4.1,8.2,1.6,13.9c0,0-0.3-12.1-2.5-13.1c0,0-3.6,3.2-4.1,4.5c0,0,2.8,6,1.1,9.1c0,0-1.1-8.1-2-8.1c0,0-3.6,5.4-3.9,9
	c0.2-3.4,1.2-6.7,3.1-9.5c-2.1,0.4-4,1.4-5.5,2.8c0,0,0.6-3.8,6.3-4.1c0,0,3-4.1,3.7-4.3c0,0-5.8-0.5-9.2,1.1c0,0,3.1-3.6,10.3-1.9
	l4-3.3c0,0-7.6-1-10.8,0.1c0,0,3.7-3.2,11.9-0.9l4.4-2.6c0,0-6.5-1.4-10.3-0.9c0,0,4.1-2.2,11.6,0.2l3.2-1.4c0,0-4.7-0.9-6.1-1.1
	s-1.5-0.5-1.5-0.5c3-0.5,6.1-0.2,8.9,1C657.2,103.5,664,100.9,663.8,100.5z"/>
<rect x="395.9" y="226.2" class="st9" width="206.9" height="439.2"/>
<linearGradient id="SVGID_1_" gradientUnits="userSpaceOnUse" x1="491.0937" y1="2236.9971" x2="698.0662" y2="2236.9971" gradientTransform="matrix(1 0 0 1 -95.23 -1626.1799)">
	<stop  offset="0" style="stop-color:#808080;stop-opacity:0.25"/>
	<stop  offset="0.54" style="stop-color:#808080;stop-opacity:0.12"/>
	<stop  offset="1" style="stop-color:#808080;stop-opacity:0.1"/>
</linearGradient>
<path class="st10" d="M596.5,788c0,0-4.9-11.4-7.1-16.6c-1.2-3-3.3-3.5-4.9-3.4l0.1-1l0.4-4.7l0.1-1c3.8-0.8,7-1.4,7-1.4l-2.4-121.3
	c0,0-1-1.3-3.4-9c-1.2-3.8-7-8.6-12.4-12.3c-0.8-0.6-1.7-1.2-2.5-1.7c2-1.7,4-3.2,6.2-4.6c3.1-1.8,4.1-12,4.1-12l-0.5,1
	c0.5-1,0-27.1,0-27.1l-1.8-27.1c0,0-1.3-32.2-11.3-40.6s-22.6-11.4-22.6-11.4l-7-1.8l0,0l-12.9-3.3c-0.4-0.6-0.7-1.2-1-1.9
	c-0.1-0.2-0.2-0.5-0.4-0.8c8-5.7,12.8-14.9,12.8-24.6c0-1.6-0.1-3.2-0.4-4.8c0-0.3-0.1-0.6-0.2-0.9c1.1-0.7,2.1-1.5,3-2.4
	c1.5-1.2,2.8-2.7,3.7-4.5l0,0c0.1-0.3,0.3-0.7,0.3-1c0-0.1,0-0.2,0.1-0.3s0.1-0.5,0.1-0.8c0-0.1,0-0.2,0-0.3c0-0.3,0-0.6,0-0.9
	c0-0.1,0-0.1,0-0.2c0-0.3,0-0.7-0.1-1c0,0,0,0,0-0.1l0,0c-0.2-1.2-0.5-2.3-0.9-3.4c-1-2.6-2.3-5-2.8-7.8c-0.6-3.2,0.1-6.8-1.5-9.7
	c-1.3-2.2-3.5-3.8-6.1-4.2c-2.5-0.4-5.1-0.1-7.5,0.9c-1.2,0.6-2.4,0.9-3.7,1c-0.9-0.1-1.9-0.3-2.7-0.7c-3-1.2-5.8-2.7-8.4-4.5
	c-1.9-1.5-3.9-2.8-6-3.9s-4.7-1.2-6.9-0.3c-3.7,1.9-4.4,7.1-7.8,9.4c-2.4,1.6-5.5,1.4-8.3,1.5s-6.1,0.8-7.5,3.3
	c-1,1.7-0.8,3.8-0.6,5.8l0.1,0.7c0,0.2,0,0.5,0.1,0.7c0.2,2.6-0.2,5.1-1.1,7.6c-1.4,3.7-4,7.3-3.9,11l0,0c0,0.6,0.1,1.2,0.2,1.8
	c0.1,0.3,0.2,0.6,0.3,0.9l0,0c0.6,1.2,1.2,2.4,1.8,3.6l0.1,0.2c0.1,0.1,0.1,0.3,0.2,0.4s0.2,0.4,0.2,0.6s0.1,0.2,0.1,0.3
	s0.1,0.4,0.2,0.6c0.2,0.6,0.2,1.2,0.2,1.7c-0.1,0.8-0.2,1.5-0.2,2.3s0.6,1.5,1.3,1.6c0.4,0,0.8-0.1,1.2-0.4c0.9-0.5,1.8-1.1,2.5-1.8
	c0,0.3,0,0.6,0.1,1c0.7,7.2,3.9,13.8,9.1,18.8c0,0.3,0,0.6-0.1,1s0,0.7-0.1,1.1l0,0l-11.2,3.5c0,0,0.1,0.2,0.2,0.5l-1.2,0.5l0,0
	c-5.8,2.3-12.3,5.3-15.9,7.9c-1.6,1.2-3.1,2.1-4.4,2.9c-4.8,2.9-8.4,7.3-10.4,12.5l-0.2,0.4c-1,2.3-5.9,17.9-5.9,17.9
	s-3.6,8.7-4.1,14.3c0,0-5.9,18.6-4.4,30.9c0,0-4.6,17.6-2.8,20.4c0,0-1.8,7.6,6.2,15.2c-0.6,0.4-1.2,0.8-1.9,1.2
	c-6.3,3.9-15.3,10.3-16.8,15.3c-2.4,7.7-3.4,9-3.4,9l-2.4,121.1c0,0,3.2,0.6,7,1.4l0.1,1l0.4,4.7l0.1,1c-1.6-0.1-3.7,0.5-4.9,3.4
	c-2.2,5.2-7,16.6-7,16.6s-10.8,10-4.2,19.3c0.3,0.4,0.6,0.8,1,1.2c4.7,4.3,14.7,1.5,21.8-1.2c3.6-1.5,6.7-4.1,9-7.3
	c0.6-0.8,1.4-1.2,2.4-1.3c1.6-0.3,3.2-0.9,4.5-2c1.6-1.2,2.5-3,2.5-5c0,0,0-0.1,0-0.2l-0.6-14.2c0,0-0.8-9.9-3.2-9.3l-0.6,0.2
	l-0.2-1l0,0l-0.3-1.9l-0.2-1h1.4c0,0,0.3-11.2,4.5-20.1s6.8-80.2,6.8-80.2s50.9,0.8,52.6-3.9l0,0c1,0,2.1,0,3.1-0.1
	c1.7,4.8,49.7,5,49.7,5s2.7,71.5,6.8,80.3c0.9,1.9,1.6,3.9,2.2,5.9l0,0c1.3,4.6,2.1,9.4,2.3,14.2h1.4l-0.2,1l-0.3,1.9l-0.2,1
	l-0.7-0.2c-2.4-0.6-3.2,9.3-3.2,9.3l-0.7,14.3c-0.1,2,0.8,3.8,2.4,5c1.3,1,2.9,1.7,4.5,2c1,0.1,1.8,0.6,2.4,1.3
	c2.3,3.2,5.4,5.7,9,7.3c7.7,3,18.7,5.9,22.8,0.1C607.3,798,596.5,788,596.5,788z M467.2,609.7L467.2,609.7h0.1H467.2z M547.6,568.8
	c0,0,1.3,4.8,3.6,7.4s1.2,18.4,1.2,18.4c-0.9,0.1-1.8,0.2-2.7,0.4C547.9,584.5,546.2,572.8,547.6,568.8z"/>
<polygon class="st11" points="437,768.4 416.9,770.4 416.3,763.7 415.9,759.1 415.4,752.3 434.4,753.3 435.9,762 436.2,763.9 
	436.2,763.9 "/>
<polygon class="st11" points="583.4,753.3 582.9,760.1 582.5,764.7 581.9,771.4 561.8,769.4 562.6,764.9 562.9,763 564.4,754.3 "/>
<path class="st12" d="M562.1,655.9l-59.8,2.8c-2.7,0.1-5.4,0.1-8.2,0l-57.1-2.8v-45.3h125.1V655.9z"/>
<path class="st13" d="M562.1,655.9l-59.8,2.8c-2.7,0.1-5.4,0.1-8.2,0l-57.1-2.8v-45.3h125.1V655.9z"/>
<path class="st14" d="M485.5,488.7c0,0-19.9,6.7-27.4,12.2c-1.6,1.1-3,2.1-4.3,2.8c-4.6,2.9-8.2,7.2-10.1,12.3
	c0,0.1-0.1,0.3-0.2,0.4c-1,2.2-5.8,17.5-5.8,17.5s-3.5,8.5-4,14s28.5,20.2,28.5,20.2s-14,30.5-7.8,38.2s97.5,11.5,95.5,0
	s-5.5-30.5-3.8-35.8l31-22.5c0,0-1.2-31.5-11-39.8s-22-11.2-22-11.2l-19.4-5c0,0-6.8,17-14.3,19.2
	C503.1,513.7,486.7,503.3,485.5,488.7z"/>
<path class="st13" d="M513.5,517.4c0,0-8.5,7.1-12.9,0c0,0-4,11.9,0,15.9l-0.2,0.8l-0.7,3.6l-9.3,77l7.6,13.2l13.9-17.4l-1.1-72
	l-0.5-4.1l-0.1-1h2.4C512.6,533.3,518.9,522.4,513.5,517.4z"/>
<path class="st13" d="M515.5,517.4c0,0-8.5,7.1-12.9,0c0,0-4,11.9,0,15.9l-0.2,0.8l-0.7,3.6l-9.3,77l7.6,13.2l13.9-17.4l-1.1-72
	l-0.5-4.1l-0.1-1h2.4C514.6,533.3,520.9,522.4,515.5,517.4z"/>
<polygon class="st15" points="513,609.4 499.1,626.8 491.5,613.7 500.7,536.7 501.4,533.1 501.6,532.3 502.9,529.1 511.2,532.3 
	511.4,533.3 511.9,537.4 "/>
<path class="st13" d="M435.9,762c-4.3,0-8.6-0.5-12.8-1.3c-2.1-0.5-4.7-1.1-7.1-1.6l-0.6-6.8l19,1L435.9,762z"/>
<path class="st12" d="M499.2,658.8c-1.7,4.7-51.2,3.8-51.2,3.8s-2.7,70-6.7,78.7S437,761,437,761s-8.7,0-14-1.3s-14-3-14-3
	l2.3-118.8c0,0,1-1.2,3.3-8.8c1.5-4.8,10.3-11.1,16.4-15c3.4-2.1,5.9-3.5,5.9-3.5l29.6,1.2l18.3,0.7
	C484.9,612.6,500.9,654.2,499.2,658.8z"/>
<path class="st13" d="M437,768.4l-20.1,2l-0.6-6.7c0.8,0,1.5,0.2,2.2,0.5c3.7,2.6,14.2,0.5,17.7-0.3l0,0L437,768.4z"/>
<path class="st15" d="M440.8,787.9c0,1.9-0.9,3.8-2.4,4.9c-1.3,1-2.8,1.6-4.3,1.9c-0.9,0.1-1.8,0.6-2.3,1.3
	c-2.2,3.1-5.3,5.6-8.8,7.1c-6.9,2.7-16.7,5.4-21.2,1.2c-0.4-0.3-0.7-0.7-1-1.1c-6.4-9.1,4.1-18.9,4.1-18.9s4.7-11.1,6.9-16.2
	c0.9-2.6,3.8-4,6.4-3.1c0.2,0.1,0.3,0.1,0.5,0.2c4,2.9,16.1,0.1,18.5-0.5s3.1,9.1,3.1,9.1l0.6,13.9
	C440.8,787.8,440.8,787.8,440.8,787.9z"/>
<path class="st13" d="M583.4,753.3l-0.6,6.8c-2.4,0.5-5,1.1-7.1,1.6c-4.2,0.8-8.5,1.3-12.8,1.3l1.5-8.7L583.4,753.3z"/>
<path class="st12" d="M589.8,757.7c0,0-8.7,1.7-14,3s-14,1.3-14,1.3s-0.3-11-4.3-19.7s-6.7-78.7-6.7-78.7s-46.8-0.3-48.5-4.9
	s20.4-45,20.4-45l13.5-0.7l25.6-1.4c0,0,5,2.7,10.2,6.4s10.9,8.3,12.1,12.1c2.3,7.5,3.3,8.8,3.3,8.8L589.8,757.7z"/>
<path class="st13" d="M582.5,764.7l-0.6,6.7l-20.1-2l0.8-4.5c3.5,0.8,14,2.9,17.7,0.3C581,764.9,581.7,764.7,582.5,764.7z"/>
<path class="st15" d="M580.3,766.2c2.5-1.2,5.5-0.1,6.7,2.4c0.1,0.2,0.2,0.3,0.2,0.5c2.1,5.1,6.9,16.2,6.9,16.2s10.5,9.8,4.1,18.9
	c-4,5.7-14.8,2.8-22.2-0.1c-3.5-1.5-6.6-4-8.8-7.1c-0.6-0.7-1.4-1.2-2.3-1.3c-1.6-0.3-3.2-1-4.4-2c-1.5-1.1-2.4-3-2.3-4.9l0.6-14
	c0,0,0.8-9.7,3.1-9.1S576.3,769,580.3,766.2z"/>
<path class="st16" d="M528.6,497.2l-20.2,21.4l-0.6,0.6l-0.7-0.4c-4.2-2.5-25.3-15.2-23.5-19.1c1-2.2,1.6-6.7,1.9-10.6
	c0-0.5,0.1-0.9,0.1-1.4c0.2-3.1,0.2-5.5,0.2-5.5s38-6.5,36.5,0c-0.6,2.6,0.3,5.6,1.6,8.2c0.4,0.8,0.8,1.5,1.2,2.1
	C526.2,494.1,527.3,495.7,528.6,497.2z"/>
<path class="st13" d="M523.9,490.4c-11.7,8.6-28,7.5-38.3-2.7c0.2-3.1,0.2-5.5,0.2-5.5s38-6.5,36.5,0
	C521.8,484.8,522.7,487.8,523.9,490.4z"/>
<path class="st16" d="M536,465.5c0.2,16.4-12.9,29.9-29.2,30.1c-15.6,0.2-28.7-11.7-30-27.3c-0.1-0.9-0.1-1.9-0.1-2.8
	c-0.3-16.4,12.7-29.9,29.1-30.2c16.4-0.3,29.9,12.7,30.2,29.1C536,464.7,536,465.1,536,465.5L536,465.5z"/>
<path class="st13" d="M535.6,460.7c-1.6,1.3-3.6,1.8-5.6,1.5c-4.6-1-6.2-8-10.8-8.5s-7.8,6-12.5,5.9c-2,0-3.8-1.4-5.6-2.3
	c-3.2-1.6-8.5-2.6-12-1.4c-5.2,1.8-7,6.6-10.3,10.5c-0.6,0.7-1.2,1.3-1.9,1.8c-0.1-0.9-0.1-1.9-0.1-2.8c-0.1-16.4,13-29.8,29.4-29.9
	C520.9,435.4,533.5,446.1,535.6,460.7L535.6,460.7z"/>
<path class="st11" d="M501.1,456.4c1.8,0.9,3.6,2.2,5.6,2.3c4.7,0.1,7.8-6.4,12.5-5.9s6.2,7.5,10.8,8.5c3.1,0.7,6-1.6,8.3-3.8
	c1.5-1.2,2.7-2.7,3.6-4.4c1-2.5,0.5-5.3-0.5-7.9s-2.2-4.9-2.7-7.6c-0.6-3.2,0.1-6.7-1.4-9.5c-1.3-2.2-3.4-3.7-5.9-4.1
	s-5-0.1-7.3,0.8c-1.1,0.5-2.4,0.9-3.6,1c-0.9-0.1-1.8-0.3-2.7-0.6c-2.9-1.1-5.6-2.6-8.2-4.4c-1.8-1.5-3.8-2.7-5.8-3.8
	c-2.1-1.1-4.6-1.2-6.7-0.3c-3.6,1.8-4.3,7-7.6,9.2c-2.3,1.6-5.3,1.4-8.1,1.5s-6,0.8-7.3,3.2c-1.2,2.1-0.6,4.7-0.4,7
	c0.1,2.5-0.2,5-1.1,7.4c-1.5,4.1-4.7,8.2-3.6,12.5c0.7,2.8,3.2,5.1,3.1,8c-0.1,0.7-0.2,1.5-0.2,2.2c0,0.8,0.6,1.4,1.3,1.6
	c0.4,0,0.8-0.1,1.1-0.4c1.7-0.9,3.2-2.1,4.4-3.6c3.4-3.9,5.1-8.7,10.4-10.5C492.6,453.8,497.8,454.8,501.1,456.4z"/>
<path class="st16" d="M535.5,630.9l-5.4,1.5l-12.5,3.4c-2.9,2.2-6.1,3.8-9.6,4.8c-7.6,1.9-12.6-2.3-16.7-8.8
	c-1.7-2.6-0.8-4.7,1.3-6.3c5.2-3.9,18.1-5.2,22-4.7c2.6,0.2,5.2-0.2,7.6-1.2c1.7-0.6,3.3-1.4,4.9-2.3L535.5,630.9z"/>
<path class="st13" d="M535.5,630.9l-5.4,1.5c-1.5-4.7-4.1-10.5-7.8-12.8c1.7-0.6,3.3-1.4,4.9-2.3L535.5,630.9z"/>
<path class="st13" d="M572,618.1c-2.2,1.8-4.1,3.5-4.1,3.5s-26,8.2-31,18.4c0,0-4-20-12.5-20.2c0,0,9.2-3.6,11.8-6.7l25.6-1.3
	C561.8,611.7,566.8,614.4,572,618.1z"/>
<path class="st14" d="M571.6,539.7l5.8,8.5l1.8,26.5c0,0,0.5,25.5,0,26.5l0.5-1c0,0-1,10-4,11.8s-9.8,7.6-9.8,7.6s-26,8.2-31,18.4
	c0,0-4-20-12.5-20.2c0,0,12.8-5,12.5-8.2c0,0,9.8-8.8,10.5-11s5.6-2.5,5.6-2.5s1.1-15.5-1.1-18s-3.5-7.2-3.5-7.2L571.6,539.7z"/>
<path class="st13" d="M508,640.6c-7.6,1.9-12.6-2.3-16.7-8.8c-1.7-2.6-0.8-4.7,1.3-6.3l0.8,0.3C493.5,625.8,507.2,631.8,508,640.6z"
	/>
<path class="st16" d="M504.9,648.5c-9,12.5-25.8-4.9-27-8.4c-0.5-1.3-2.2-2.4-4.1-3.3c-2.5-1.1-5.1-2-7.8-2.6l14.9-12.1l2.8,1.1
	l8.8,3.5C492.5,626.8,513.9,636,504.9,648.5z"/>
<path class="st13" d="M483.7,623.3c-8.2,3.9-10,9.5-10,13.5c-2.5-1.1-5.1-2-7.8-2.6l14.9-12.1L483.7,623.3z"/>
<path class="st13" d="M470.6,644.9c0,0-24-19-35.5-27.2c-1.4-1-2.8-2.2-4-3.5c3.4-2.1,5.9-3.5,5.9-3.5l29.6,1.2
	c0.8,1.4,1.3,2.3,1.3,2.3l16,10.5C464.6,630.9,470.6,644.9,470.6,644.9z"/>
<path class="st14" d="M438.6,545.2l-4.8,2.8c0,0-5.8,18.2-4.2,30.2c0,0-4.5,17.2-2.8,20c0,0-2.2,9.2,9.2,17.5s35.5,27.2,35.5,27.2
	s-6-14,13.2-20.2l-16-10.5c0,0-5.4-10.7-10.5-13c0,0-4-4-1.5-6.8s4.5-5.8,4.5-8.5s1-15.8,1-15.8l3-14L438.6,545.2z"/>
<path class="st13" d="M511.4,533.3h-9.8c-0.1-0.1-0.1-0.1-0.2-0.2l0.2-0.8l1.2-3.2l8.4,3.2L511.4,533.3z"/>
<path class="st15" d="M514.5,516.4c0,0-8.5,7.1-12.9,0c0,0-4,11.9,0,15.9h12C513.6,532.3,519.9,521.4,514.5,516.4z"/>
<path class="st13" d="M525.9,493.2l12.6,3.2c0,0-11.9,31-14.6,31l-15.1-7.2L525.9,493.2z"/>
<path class="st13" d="M528.6,497.2l-20.2,21.4l-0.6,0.6l-0.7-0.4l17.6-26.9l0.4,0.7C526.2,494.2,527.3,495.7,528.6,497.2z"/>
<path class="st14" d="M524.9,492.2l12.6,3.2c0,0-11.9,31-14.6,31l-15.1-7.2L524.9,492.2z"/>
<path class="st13" d="M484.5,489.7l-10.9,3.4c0,0,10.8,32.5,13.8,34.2l19.5-7.2L484.5,489.7z"/>
<path class="st13" d="M508.4,518.6l-0.6,0.6c0,0-26.2-15.2-24.2-19.5c1-2.2,1.6-6.7,1.9-10.6v-0.6L508.4,518.6z"/>
<path class="st14" d="M485.5,488.7l-10.9,3.4c0,0,10.8,32.5,13.8,34.2l19.5-7.2L485.5,488.7z"/>
<path class="st13" d="M459.5,541.8c0,0,6.6,1.2,6.5,8s2.7-8.8,2.7-8.8L459.5,541.8z"/>
<path class="st13" d="M461,562.8c0,0-1.8,10.3,0,19.7s1.7,12.5,3.1,13S461,562.8,461,562.8z"/>
<path class="st13" d="M545,561.8c-2,0.3-3.4,2.1-3.1,4c0,0.2,0.1,0.4,0.1,0.6C542.9,570.7,545,561.8,545,561.8z"/>
<path class="st13" d="M430.7,596.8c0,0,21.4-1.8,25,2S430.7,596.8,430.7,596.8z"/>
<path class="st13" d="M555,598.3c0,0,15.7-1.9,19.3,0.7"/>
<path class="st13" d="M561.4,600.8c0,0,9.3,0.3,11.5,1.5"/>
<path class="st13" d="M563.2,604.2c0,0,8.5-0.3,9.7,1"/>
<path class="st13" d="M443.3,651.2c0,0,7.3,3.8,6.5,7.7S443.3,651.2,443.3,651.2z"/>
<path class="st13" d="M437,653c0,0,11.1,14.4,9.6,19.2S437,653,437,653z"/>
<path class="st13" d="M556.1,655.4c0,0-5.5,4.5-5.3,8.3"/>
<path class="st13" d="M429.1,744.7c0,0,0,4.2,7.9,10.5"/>
<path class="st13" d="M568,734.7c0,0-0.8,8.8-8.5,13.4"/>
<g class="st17">
	<path class="st18" d="M473.6,434.6c0-0.7-0.1-1.4-0.2-2.1c-0.1,1.5-0.1,3.1,0.1,4.6C473.6,436.3,473.6,435.5,473.6,434.6z"/>
	<path class="st18" d="M472,462.6c0.2-2.9-2.4-5.2-3.1-8c0-0.1-0.1-0.3-0.1-0.4c-0.2,1.1-0.2,2.3,0.1,3.4c0.6,2.3,2.4,4.2,2.9,6.5
		C471.9,463.5,472,463.1,472,462.6z"/>
	<path class="st18" d="M542,450.1c-0.9,1.7-2.1,3.2-3.6,4.4c-2.3,2.1-5.2,4.5-8.3,3.8c-4.6-1-6.2-8-10.8-8.5s-7.8,6-12.5,5.9
		c-2,0-3.8-1.4-5.6-2.3c-3.2-1.6-8.5-2.6-12-1.4c-5.2,1.8-7,6.6-10.4,10.5c-1.3,1.4-2.7,2.6-4.4,3.6c-0.3,0.2-0.7,0.3-1.1,0.4
		c-0.5-0.1-0.9-0.4-1.1-0.9v0.1c-0.1,0.7-0.2,1.5-0.2,2.2c0,0.8,0.6,1.4,1.3,1.6c0.4,0,0.8-0.1,1.1-0.4c1.7-0.9,3.1-2.1,4.4-3.6
		c3.4-3.9,5.1-8.7,10.4-10.5c3.5-1.2,8.8-0.2,12,1.4c1.8,0.9,3.6,2.2,5.6,2.3c4.7,0.1,7.8-6.4,12.5-5.9s6.3,7.4,10.8,8.5
		c3.1,0.7,6-1.6,8.3-3.8c1.5-1.2,2.7-2.7,3.6-4.4c0.6-1.4,0.7-3,0.4-4.5C542.3,449.1,542.2,449.6,542,450.1z"/>
</g>
<path class="st13" d="M404.8,784.3c0,0,8.2-2.5,11.6,2.3"/>
<path class="st13" d="M594,785.3c0,0-13.5-0.8-13,2.9"/>
<ellipse class="st1" cx="864.2" cy="773.3" rx="26.9" ry="4.5"/>
<ellipse class="st1" cx="91.1" cy="810.7" rx="26.9" ry="4.5"/>
<ellipse class="st1" cx="195.3" cy="835.1" rx="26.9" ry="4.5"/>
<ellipse class="st2" cx="805.2" cy="822.1" rx="40.2" ry="6.8"/>
<path class="st3" d="M821.9,811c1.8-1.5,3.2-3.5,3.8-5.8c0.5-2.3-0.5-5-2.7-5.9c-2.5-0.9-5.1,0.8-7.1,2.5s-4.3,3.7-6.9,3.3
	c2.7-2.5,4-6.2,3.2-9.8c-0.1-0.7-0.4-1.4-0.9-2c-1.4-1.5-3.8-0.8-5.5,0.3c-5.2,3.7-6.7,10.7-6.7,17.1c-0.5-2.3-0.1-4.7-0.1-7
	s-0.7-5-2.6-6.2c-1.2-0.7-2.6-1-4-0.9c-2.3-0.1-4.9,0.2-6.5,1.9c-2,2.1-1.5,5.7,0.3,8s4.3,3.8,6.8,5.4c1.9,1.2,3.6,2.7,4.8,4.6
	c0.1,0.3,0.3,0.5,0.4,0.8h14.6C816.1,815.6,819.1,813.5,821.9,811z"/>
<path class="st3" d="M196.6,723.3c0,0,5.5,7.2-2.5,18s-14.6,20-12,26.8c0,0,12.1-20.2,22-20.4S207.5,735.4,196.6,723.3z"/>
<path class="st9" d="M196.6,723.3c0.5,0.7,0.9,1.5,1.1,2.3c9.6,11.3,14.8,21.8,5.5,22.1c-8.6,0.2-18.9,15.7-21.4,19.5
	c0.1,0.3,0.2,0.6,0.3,0.9c0,0,12.1-20.2,22-20.4S207.5,735.4,196.6,723.3z"/>
<path class="st19" d="M206.9,732.4c0,2.5-0.3,4.6-0.6,4.6s-0.6-2-0.6-4.6s0.4-1.3,0.7-1.3S206.9,729.9,206.9,732.4z"/>
<path class="st19" d="M210.4,735.5c-2.2,1.2-4.2,1.9-4.3,1.6s1.5-1.5,3.7-2.8s1.4-0.3,1.5,0S212.6,734.2,210.4,735.5z"/>
<path class="st20" d="M167.6,723.3c0,0-5.5,7.2,2.5,18s14.6,20,12,26.8c0,0-12.1-20.2-22-20.4S156.8,735.4,167.6,723.3z"/>
<path class="st21" d="M167.6,723.3c-0.5,0.7-0.9,1.5-1.1,2.3c-9.6,11.3-14.7,21.8-5.5,22.1c8.6,0.2,19,15.7,21.4,19.5
	c-0.1,0.3-0.2,0.6-0.3,0.9c0,0-12.1-20.2-22-20.4S156.8,735.4,167.6,723.3z"/>
<path class="st19" d="M157.4,732.4c0,2.5,0.3,4.6,0.6,4.6s0.6-2,0.6-4.6s-0.4-1.3-0.7-1.3C157.6,731.1,157.4,729.9,157.4,732.4z"/>
<path class="st2" d="M153.9,735.5c2.2,1.2,4.1,1.9,4.3,1.6s-1.5-1.5-3.7-2.8s-1.3-0.3-1.5,0C152.8,734.7,151.7,734.2,153.9,735.5z"
	/>
<path class="st22" d="M159.2,767.1c0,0,15.4-0.5,20-3.8s23.6-7.2,24.8-2s23.1,26.3,5.8,26.4s-40.3-2.7-44.9-5.5
	S159.2,767.1,159.2,767.1z"/>
<path class="st23" d="M210,786c-17.3,0.1-40.3-2.7-44.9-5.5c-3.5-2.2-4.9-9.8-5.4-13.4h-0.5c0,0,1,12.4,5.6,15.2s27.6,5.7,44.9,5.5
	c5,0,6.7-1.8,6.6-4.5C215.6,785,213.7,786,210,786z"/>
<g>
	<g>
		<g>
			<path class="st24" d="M629,498.38c0.3-0.1,0.61-0.2,0.93-0.32c1.58-0.56,4.77-4.7,4.77-4.7l6.02,6.5l-4.14,4.37
				c-2.36,5.53-2.4,5.63-9.54,6.7c-6.19,0.93-5.18,4.87-9.48,5.95c-4.3,1.08-3.72-5-3.72-5c1.66-9.64,3.48-10.91,7.62-11.76
				c-1.37-0.49-2.29-1.22-2-2.12c0.25-0.8,2.38,0.07,6.59-0.45C626.7,497.47,627.91,497.91,629,498.38z"/>
			<path class="st25" d="M633.73,501.91c-2.29-4.6-3.35-9.98-3.35-9.98s40.62-26.71,44.18-29.69c3.56-2.98,40.49-57.27,40.49-57.27
				l43.28,3.47c0,0-57.72,66.62-66.89,73.99c-15.16,12.18-53.03,25.38-53.03,25.38S635.53,505.53,633.73,501.91z"/>
			<g>
				<path class="st26" d="M663.71,784.89h44.47c2.14-2.61,1.35-12.24,1.03-15.39c-0.07-0.63-0.11-1-0.11-1s-15.19-12.15-17.27-2.85
					c-0.06,0.29-0.14,0.58-0.23,0.86c-2.63,8.7-14.42,12.65-21.22,13.75C665.95,780.99,664.32,783.29,663.71,784.89z"/>
				<path class="st26" d="M722.57,784.89h44.47c2.14-2.61,1.35-12.24,1.03-15.39c-0.07-0.63-0.11-1-0.11-1s-15.19-12.15-17.27-2.85
					c-0.06,0.29-0.14,0.58-0.23,0.86c-2.63,8.7-14.42,12.65-21.22,13.75C724.81,780.99,723.18,783.29,722.57,784.89z"/>
				<path class="st27" d="M682.24,537.62c0,0,0,27.11-0.09,62.39c-0.12,47.12,3.16,104.68,3.59,115.61
					c0.76,18.98,3.8,49.35,3.8,49.35s7.21,7.21,21.64,4.17c0,0,12.86-43.35,16.53-89.21c0.06-0.75,0.11-1.51,0.17-2.27
					c3.42-46.69,8.73-145,8.73-145L682.24,537.62z"/>
				<path class="st28" d="M682.24,537.62c0,0,0,26.07-0.09,62.39l41.73,111.36c0.06-0.75,3.95-32.94,4-33.7
					c3.42-46.69,8.73-145,8.73-145L682.24,537.62z"/>
				<path class="st27" d="M704.06,528.38c0,0,5.61,74.69,13.53,137.14c10.08,54.49,27.93,104.64,27.93,104.64s21.69,2.05,24.04-1.78
					c0,0,4.34-67.74-5.5-103.27c-4.44-16.02,2.83-59.52,4.41-82.61c2.04-29.88-4.44-56.89-4.44-56.89L704.06,528.38z"/>
			</g>
			<path class="st29" d="M705.45,388.18c16.24,5.13,44.34-8.71,44.34-8.71s-14.98-11.24-14.19-34.61l-12.56,10.12l-8.53,6.87
				c0,0,0.04,4.05,0.97,11.15c0.25,1.87,0.55,3.95,0.94,6.23C709.45,383.07,705.45,388.18,705.45,388.18z"/>
			<path class="st24" d="M714.52,361.86c0,0,0.04,4.05,0.97,11.15c9.45-1.62,20.17-16.9,20.17-16.9c-4.81-1.39-9.03-1.64-12.61-1.13
				L714.52,361.86z"/>
			<path class="st29" d="M709.55,361.48c0,0,26.83,4.46,29.35-12.29c2.52-16.75,7.68-27.46-9.35-31.01
				c-17.02-3.55-21.32,2.34-23.52,7.72C703.83,331.28,702.64,359.88,709.55,361.48z"/>
			<path class="st30" d="M681.3,539.01c0.49,0.41,1.06,0.65,1.71,0.65c6.1-0.08,25.37,3.34,40.42,1.8
				c12.69-1.22,23.92-4.98,35.98-10.38c1.6-0.72,5.29-2.68,5.2-4.47c-0.05-1.96-0.25-4.8-0.49-8.38
				c-0.85-12.45-2.34-33.86-0.89-58.56c0.26-4.6,0.4-9.16,0.41-13.65c0.12-33.47-6.51-62.92-19.85-72.88
				c-1.14-0.82-8.13,2.6-14.56,5.77c-5.94,2.93-11.88,3.25-17.49,2.12l-5.61,4.96c-6.83,6.34-14.32,14.97-17.57,28.06
				c-2.77,11.14-4.39,31.23-5.29,52.05c-0.41,9.43-0.73,18.95-0.82,27.98v0.32c-0.08,0.9-0.08,1.87-0.08,2.77
				C682.05,520.34,680.89,538.69,681.3,539.01z"/>
			<path class="st31" d="M738.92,347.57c0,0-2.75-0.46-2.31-4.25c0.44-3.79,0.44-8.75-2.64-7.82c-3.08,0.92-3.24,3.39-4.5,1.95
				c-1.27-1.44-1.29-7.51-10.46-7.94c-9.17-0.42-12.9,2.77-17.17,0.89c-4.27-1.88-4.49-8.33-4.49-8.33s1.21,2.31,3.05,3.04
				c0,0-7.12-9.73,1.12-16.41c8.24-6.67,16.64-2.31,21.41-2.02c10.51,0.64,17.29,1.27,20.73,8.17
				C747.08,321.76,745.66,340.93,738.92,347.57z"/>
			<path class="st25" d="M497.16,554.03l-6.52-0.93c0,0,0,0,0,0h0l-0.01,0c0,0-0.01,0-0.01,0c-0.45-0.11-0.91-0.2-1.38-0.27
				l-11.89-1.69l0.8-5.59c0.18-1.25-0.14-2.49-0.9-3.5c-0.76-1.01-1.87-1.67-3.11-1.84l-3.1-0.44l-12.49-1.78l-2.25-0.32
				c-2.58-0.37-4.98,1.43-5.35,4.01l-0.79,5.59l-20.53-2.93c-7.8-1.11-15.09,4.36-16.21,12.16l-3.73,26.19
				c-1.11,7.8,4.36,15.09,12.16,16.21l59.62,8.5c1.05,0.15,2.09,0.18,3.11,0.1l4.87,0.69c7.77,1.11,15.04-4.35,16.15-12.12
				l3.69-25.88C510.39,562.41,504.94,555.14,497.16,554.03z M453.88,542.1c0.11-0.78,0.72-1.37,1.47-1.49
				c0.17-0.03,0.35-0.03,0.53-0.01l2.65,0.38l9.83,1.4l5.36,0.76c0.96,0.14,1.64,1.03,1.5,1.99l-0.79,5.59l-21.34-3.04L453.88,542.1
				z"/>
			<g>
				<path class="st25" d="M764.07,518.26c-0.85-12.45-2.34-33.86-0.89-58.56c0.26-4.6,0.4-9.16,0.41-13.65
					c-5.56-13.48-10.1-23.25-10.1-23.25h-14C739.49,422.8,729.23,492.93,764.07,518.26z"/>
				<path class="st29" d="M793.71,527.5c-0.01-0.32-0.03-0.65-0.06-0.98c-0.12-1.67-3.26-5.85-3.26-5.85l7.86-4.08l3.11,5.15
					c4.7,3.74,4.79,3.81,3.93,10.97c-0.74,6.21,3.32,6.29,3.22,10.72c-0.1,4.44-5.81,2.26-5.81,2.26
					c-8.86-4.16-9.59-6.25-9.32-10.47c-0.84,1.19-1.78,1.89-2.58,1.37c-0.7-0.46,0.7-2.27,1.31-6.48
					C792.22,529.48,792.96,528.43,793.71,527.5z"/>
				<path class="st30" d="M798.37,523.88c-5.04,0.98-10.51,0.58-10.51,0.58s-14.97-46.25-16.9-50.48
					c-1.93-4.23-44.47-54.23-44.47-54.23l17.72-44.35c0,0,46.02,76.87,50.69,87.67c7.72,17.85,10.4,57.86,10.4,57.86
					S802.33,523.1,798.37,523.88z"/>
			</g>
			<g>
				<path class="st29" d="M470.31,530.89c-0.04-0.32-0.07-0.64-0.11-0.98c-0.15-1.67,2.24-6.31,2.24-6.31l-8.43-2.72l-2.21,5.59
					c-4.01,4.47-4.15,5.4-4.72,11.65c-0.57,6.23,0.62,5.32,2.38,6.04c2.14,0.88,4.25,1.39,5.78,1.69c1.79,0.34,3.65,0.22,5.34-0.44
					c2.23-0.87,2.51-2.04,2.21-3.61c-0.17-0.89,0.58-1.61,1.48-1.6c0.17,0,0.33-0.05,0.47-0.18c0.62-0.57-1.13-2.79-2.43-6.83
					C472.12,532.59,471.21,531.68,470.31,530.89z"/>
				<path class="st28" d="M465.12,528.09c5.14,0.13,10.46-1.17,10.46-1.17s7.06-48.1,8.26-52.58c1.2-4.49,34.82-60.88,34.82-60.88
					l-30.58-24.14c0,0-26.86,66.81-29.67,78.23c-4.64,18.88-0.62,58.79-0.62,58.79S461.09,527.99,465.12,528.09z"/>
				<g>
					<path class="st25" d="M454.14,784.89h-19.45c-2.45-1.33-4.63-4.37-5.32-8.91c-0.95-6.27-7.97-9.68-9.49-14.81
						c-1.52-5.12,6.27-12.33,6.27-12.33l1.3-1.68l1.35-1.74l12.91,3.04c0,0,0.32,3.07,0.51,6.99c0.14,2.82,0.21,6.09,0.06,8.95
						c-0.38,6.83,1.91,14.19,7.98,15.52C454.75,780.9,454.55,783.57,454.14,784.89z"/>
					<path class="st25" d="M566.99,784.89h-44.47c-2.14-2.61-1.35-12.24-1.03-15.39c0.07-0.63,0.11-1,0.11-1s15.19-12.15,17.27-2.85
						c0.06,0.29,0.14,0.58,0.23,0.86c2.63,8.7,14.42,12.65,21.22,13.75C564.75,780.99,566.39,783.29,566.99,784.89z"/>
					<path class="st32" d="M558.52,536.66c0,0-2.31,28.77-5.02,63.35c-3.68,46.98-8.11,104.68-8.55,115.61
						c-0.76,18.98-3.8,49.35-3.8,49.35s-7.21,7.21-21.64,4.17c0,0-12.86-43.35-16.53-89.21c-0.06-0.75-0.11-1.51-0.17-2.27
						c-3.42-46.69-8.73-145-8.73-145L558.52,536.66z"/>
					<path class="st26" d="M558.52,536.66c0,0-2.31,28.77-5.02,63.35l-50.51,79.93c-0.06-0.75-0.11-1.51-0.17-2.27
						c-3.42-46.69-8.73-145-8.73-145L558.52,536.66z"/>
					<path class="st32" d="M547.99,540.07c0,0-41.56,104.19-68.89,153.16c-27.33,48.97-35.87,62.63-35.87,62.63
						s-15.66-6.26-17.08-10.53c0,0,10.45-94.53,28.75-117.57c10.34-13.02,22.49-52.1,23.06-65.76c0.57-13.67,3.7-40.71,3.7-40.71
						L547.99,540.07z"/>
				</g>
				<path class="st29" d="M537.64,388.18c-16.24,5.13-44.34-8.71-44.34-8.71s14.98-11.24,14.19-34.61l12.56,10.12l8.53,6.87
					c0,0-0.04,4.05-0.97,11.15c-0.25,1.87-0.55,3.95-0.94,6.23C533.64,383.07,537.64,388.18,537.64,388.18z"/>
				<path class="st24" d="M528.58,361.86c0,0-0.04,4.05-0.97,11.15c-9.45-1.62-20.17-16.9-20.17-16.9
					c4.81-1.39,9.03-1.64,12.61-1.13L528.58,361.86z"/>
				<path class="st29" d="M533.55,361.48c0,0-26.83,4.46-29.35-12.29c-2.52-16.75-7.68-27.46,9.35-31.01
					c17.02-3.55,21.32,2.34,23.52,7.72C539.27,331.28,540.46,359.88,533.55,361.48z"/>
				<path class="st27" d="M560.31,539.05c-0.49,0.41-1.06,0.65-1.71,0.65c-6.1-0.08-23.89,3.3-38.93,1.76
					c-12.69-1.22-23.92-4.98-35.98-10.38c-1.6-0.72-5.29-2.68-5.2-4.47c0.05-1.96,0.25-4.8,0.49-8.38
					c0.85-12.45,2.34-33.86,0.89-58.56c-0.26-4.6-0.4-9.16-0.41-13.65c-0.12-33.47,6.51-62.92,19.85-72.88
					c1.14-0.82,8.13,2.6,14.56,5.77c5.94,2.93,11.88,3.25,17.49,2.12l5.61,4.96c6.83,6.34,14.32,14.97,17.57,28.06
					c2.77,11.14,4.39,31.23,5.29,52.05c0.41,9.43,0.73,18.95,0.82,27.98v0.32c0.08,0.9,0.08,1.87,0.08,2.77
					C561.05,520.34,560.72,538.72,560.31,539.05z"/>
				<path class="st29" d="M614.1,498.38c-0.3-0.1-0.61-0.2-0.93-0.32c-1.58-0.56-4.77-4.7-4.77-4.7l-6.02,6.5l4.14,4.37
					c2.36,5.53,2.4,5.63,9.54,6.7c6.19,0.93,5.18,4.87,9.48,5.95c4.3,1.08,3.72-5,3.72-5c-1.66-9.64-3.48-10.91-7.62-11.76
					c1.37-0.49,2.29-1.22,2-2.12c-0.25-0.8-2.38,0.07-6.59-0.45C616.4,497.47,615.19,497.91,614.1,498.38z"/>
				<path class="st27" d="M609.36,501.91c2.29-4.6,3.35-9.98,3.35-9.98s-40.62-26.71-44.18-29.69
					c-3.56-2.98-40.49-57.27-40.49-57.27l-43.28,3.47c0,0,57.72,66.62,66.89,73.99c15.16,12.18,53.03,25.38,53.03,25.38
					S607.57,505.53,609.36,501.91z"/>
				<path class="st31" d="M504.18,347.57c0,0,2.75-0.46,2.31-4.25c-0.44-3.79-0.44-8.75,2.64-7.82c3.08,0.92,3.24,3.39,4.5,1.95
					c1.27-1.44,1.29-7.51,10.46-7.94c9.17-0.42,12.9,2.77,17.17,0.89c4.27-1.88,4.49-8.33,4.49-8.33s-1.21,2.31-3.05,3.04
					c0,0,7.12-9.73-1.12-16.41c-8.24-6.67-16.64-2.31-21.41-2.02c-10.51,0.64-17.29,1.27-20.73,8.17
					C496.02,321.76,497.44,340.93,504.18,347.57z"/>
				<path class="st28" d="M560.56,488.38c0,0-35.37-11.71-47.85-26.09c-12.67-14.6-35.55-41.31-35.55-41.31l0.22-0.89
					c1.79-7.29,4.29-14.38,7.45-21.18l0,0c0,0,3.09,18.35,12.59,31.02c9.5,12.67,9.5,12.67,9.5,12.67S522.56,469.44,560.56,488.38z"
					/>
			</g>
		</g>
	</g>
</g>
</svg>
